<svg id="Слой_1" data-name="Слой 1" xmlns="http://www.w3.org/2000/svg" viewBox="0 0 520.44 207.97"><defs><style>.cls-1{fill:#d24a43;}.cls-2{fill:#fff;}.cls-3{fill:#fff343;}</style></defs><title>LOGO</title><path class="cls-1" d="M63.14,33.55h462a29.87,29.87,0,0,1,20.59,8.15,27.16,27.16,0,0,1,8.65,19.75V213.6a27.19,27.19,0,0,1-8.65,19.76,29.91,29.91,0,0,1-20.59,8.14h-106l7-5.4c12.88-10,20.6-24.69,23.65-40.42a83,83,0,0,0-2.37-40.81c-6.8,27.83-27.81,47.77-56.26,61.46-39,18.75-92.08,25.71-141.28,25.16H63.14a29.92,29.92,0,0,1-20.6-8.14A27.22,27.22,0,0,1,33.9,213.6V61.45A27.18,27.18,0,0,1,42.54,41.7,29.88,29.88,0,0,1,63.14,33.55Z" transform="translate(-33.9 -33.55)"/><path class="cls-2" d="M237.56,229.22v-.14l3,0,9.37.11c23.92.26,50.48-1.25,76.15-5.79,52.08-9.21,102.49-23,118.57-91.6,14.94,25.8,23.89,52.9,11,85.59a79.64,79.64,0,0,1-6.58,11.8h76a18.11,18.11,0,0,0,6.59-1.24,17.3,17.3,0,0,0,5.55-3.53,15.79,15.79,0,0,0,3.59-5,14.41,14.41,0,0,0,1.23-5.81V61.45a14.4,14.4,0,0,0-1.23-5.8,15.72,15.72,0,0,0-3.59-5,17.27,17.27,0,0,0-5.55-3.52,17.9,17.9,0,0,0-6.59-1.24h-462a18,18,0,0,0-6.6,1.24A17.27,17.27,0,0,0,51,50.6a15.84,15.84,0,0,0-3.58,5,14.23,14.23,0,0,0-1.23,5.8V213.6a14.24,14.24,0,0,0,1.23,5.81,15.91,15.91,0,0,0,3.58,5A17.3,17.3,0,0,0,56.54,228a18.16,18.16,0,0,0,6.6,1.24Zm12.36,6-6.32-.07v.09H63.14a24.12,24.12,0,0,1-8.79-1.66,23.15,23.15,0,0,1-7.5-4.78,21.64,21.64,0,0,1-5-7,20.37,20.37,0,0,1-1.75-8.24V61.45a20.32,20.32,0,0,1,1.75-8.23,21.68,21.68,0,0,1,5-7,23.12,23.12,0,0,1,7.5-4.77,23.92,23.92,0,0,1,8.79-1.67h462a23.87,23.87,0,0,1,8.78,1.67,23.27,23.27,0,0,1,7.51,4.77,21.65,21.65,0,0,1,5,7,20.32,20.32,0,0,1,1.75,8.23V213.6a20.37,20.37,0,0,1-1.75,8.24,21.61,21.61,0,0,1-5,7,23.3,23.3,0,0,1-7.51,4.78,24.07,24.07,0,0,1-8.78,1.66H436.86l3.94-4.9a71.75,71.75,0,0,0,9.4-15.41,81.94,81.94,0,0,0,5.68-18.06,89.82,89.82,0,0,0,1.47-22.29c-.91-15.69-6.81-28.47-12.66-42.76-6.08,38.72-21,61.86-56.29,78.86-18.42,8.86-39.53,14.84-61.25,18.68C301.17,234,274.22,235.5,249.92,235.23Z" transform="translate(-33.9 -33.55)"/><path class="cls-3" d="M307.9,163.74v21.31a6.38,6.38,0,0,0,2.49,5,9,9,0,0,0,6,2.1H329c2.82,0,4.22,1.17,4.22,3.54s-1.41,3.57-4.22,3.57H316.36a18.1,18.1,0,0,1-12-4.12,12.72,12.72,0,0,1-4.89-10.09V163.72a12.72,12.72,0,0,1,4.89-10.09,18.08,18.08,0,0,1,12-4.12H329c2.82,0,4.22,1.18,4.22,3.55s-1.41,3.57-4.22,3.57H316.36a9,9,0,0,0-6,2.07A6.4,6.4,0,0,0,307.9,163.74Z" transform="translate(-33.9 -33.55)"/><path class="cls-3" d="M293.29,153.06v42.67q0,3.56-4.21,3.55H268a18.07,18.07,0,0,1-12-4.12A12.72,12.72,0,0,1,251,185.07v-32c0-2.37,1.42-3.55,4.24-3.55s4.22,1.19,4.22,3.55v32a6.38,6.38,0,0,0,2.49,5,9,9,0,0,0,6,2.1h16.89V153.06c0-2.37,1.42-3.55,4.24-3.55S293.29,150.69,293.29,153.06Z" transform="translate(-33.9 -33.55)"/><path class="cls-3" d="M232.72,151a19.38,19.38,0,0,1,9.24,6.53,15.71,15.71,0,0,1,3.43,9.8V181.5a15.84,15.84,0,0,1-6.18,12.61,24.19,24.19,0,0,1-29.93,0c-4.08-3.46-6.14-7.65-6.14-12.58V142.39a12.68,12.68,0,0,1,4.94-10.09,19.42,19.42,0,0,1,24,0,12.75,12.75,0,0,1,4.89,10,10.13,10.13,0,0,1-4.22,8.57Zm-21.12,2.1q5.37-3.56,9.85-3.55a6.6,6.6,0,0,0,4.87-2.48,6.93,6.93,0,0,0,2.16-4.64,6.37,6.37,0,0,0-2.42-5,9,9,0,0,0-6-2,8.93,8.93,0,0,0-6,2.06,6.39,6.39,0,0,0-2.47,5v10.67Zm25.34,28.44V167.27a9.58,9.58,0,0,0-3.67-7.54,14.54,14.54,0,0,0-18,0,9.55,9.55,0,0,0-3.67,7.54V181.5a9.56,9.56,0,0,0,3.67,7.58,14.58,14.58,0,0,0,18,0A9.55,9.55,0,0,0,236.94,181.5Z" transform="translate(-33.9 -33.55)"/><path class="cls-3" d="M155.52,153.06q0-3.56,4.21-3.55h21.13a18,18,0,0,1,12,4.12,12.75,12.75,0,0,1,4.89,10.09v21.35a12.75,12.75,0,0,1-4.89,10.05,17.92,17.92,0,0,1-12,4.16H164v17.78q0,3.56-4.21,3.55c-2.82,0-4.24-1.18-4.24-3.55v-64Zm8.45,3.57v35.54h16.89a9,9,0,0,0,6-2.08,6.37,6.37,0,0,0,2.46-5V163.74a6.34,6.34,0,0,0-2.42-5.07,9,9,0,0,0-6-2Z" transform="translate(-33.9 -33.55)"/><path class="cls-3" d="M116.76,178v7.1a6.38,6.38,0,0,0,2.49,5,9,9,0,0,0,6,2.1h21.13c2.8,0,4.22,1.17,4.22,3.54s-1.43,3.57-4.22,3.57H125.21a18,18,0,0,1-12-4.12,12.7,12.7,0,0,1-4.9-10.09V167.29c0-4.93,2.07-9.11,6.19-12.58a24.25,24.25,0,0,1,30-.05,15.91,15.91,0,0,1,6.12,12.63V178Zm12.67-21.32a13.46,13.46,0,0,0-9,3.1,9.57,9.57,0,0,0-3.71,7.56v3.55H142.1v-3.55a9.53,9.53,0,0,0-3.71-7.56A13.49,13.49,0,0,0,129.43,156.63Z" transform="translate(-33.9 -33.55)"/><path class="cls-3" d="M102.15,128.18c2.8,0,4.22,1.18,4.22,3.55s-1.43,3.57-4.22,3.57H85.24c-4.87,0-8.52,1.77-10.95,5.27A9.33,9.33,0,0,0,72.57,146V181.5A9.55,9.55,0,0,0,76.28,189a13.46,13.46,0,0,0,9,3.13h16.91c2.8,0,4.22,1.17,4.22,3.54s-1.43,3.57-4.22,3.57H85.24a22.47,22.47,0,0,1-14.94-5.2c-4.12-3.47-6.19-7.65-6.19-12.58V146q0-7.4,6.19-12.57a22.43,22.43,0,0,1,14.94-5.21Z" transform="translate(-33.9 -33.55)"/><path class="cls-2" d="M481.87,79.34q0-3.56,4.21-3.55h21.13a18,18,0,0,1,12,4.12A12.75,12.75,0,0,1,524.12,90v21.35a12.79,12.79,0,0,1-4.89,10.06,18,18,0,0,1-12,4.15H490.32v17.78c0,2.36-1.4,3.55-4.21,3.55s-4.24-1.18-4.24-3.55v-64Zm8.45,3.57v35.54h16.89a9,9,0,0,0,6-2.08,6.35,6.35,0,0,0,2.47-5V90A6.35,6.35,0,0,0,513.24,85a9.08,9.08,0,0,0-6-2Z" transform="translate(-33.9 -33.55)"/><path class="cls-2" d="M442.29,104.23v7.1a6.38,6.38,0,0,0,2.49,5,9,9,0,0,0,6,2.1h21.13c2.79,0,4.21,1.17,4.21,3.54s-1.43,3.57-4.21,3.57H450.74a18,18,0,0,1-12-4.12,12.73,12.73,0,0,1-4.9-10.09V93.57q0-7.39,6.18-12.58a24.27,24.27,0,0,1,30,0,15.92,15.92,0,0,1,6.11,12.63v10.66ZM455,82.91a13.47,13.47,0,0,0-9,3.1,9.59,9.59,0,0,0-3.71,7.56v3.55h25.34V93.57A9.54,9.54,0,0,0,463.92,86,13.51,13.51,0,0,0,455,82.91Z" transform="translate(-33.9 -33.55)"/><path class="cls-2" d="M373.46,75.79h38A17.92,17.92,0,0,1,423.44,80a12.74,12.74,0,0,1,4.94,10v32c0,2.36-1.4,3.55-4.22,3.55s-4.24-1.18-4.24-3.55V90A6.36,6.36,0,0,0,417.5,85a9,9,0,0,0-6-2H403V122c0,2.36-1.4,3.55-4.22,3.55s-4.24-1.18-4.24-3.55V82.91H377.69V122c0,2.36-1.39,3.55-4.21,3.55s-4.24-1.18-4.24-3.55V79.34C369.24,77,370.64,75.79,373.46,75.79Z" transform="translate(-33.9 -33.55)"/><path class="cls-2" d="M330.31,104.23H317.63V122c0,2.37-1.39,3.55-4.21,3.55s-4.24-1.18-4.24-3.55V79.34c0-2.37,1.42-3.55,4.24-3.55s4.16,1.2,4.17,3.56l0,17.77h12.68V90a12.71,12.71,0,0,1,4.89-10.09,19.55,19.55,0,0,1,24,0A12.74,12.74,0,0,1,364.1,90v21.35a12.74,12.74,0,0,1-4.89,10.09,19.55,19.55,0,0,1-24,0,12.71,12.71,0,0,1-4.89-10.09v-7.12Zm16.9,14.22a8.9,8.9,0,0,0,5.88-2.16,6.35,6.35,0,0,0,2.56-4.94V90a6.37,6.37,0,0,0-2.43-5,9.79,9.79,0,0,0-12,0,6.38,6.38,0,0,0-2.47,5v21.35a6.36,6.36,0,0,0,2.56,4.94A8.91,8.91,0,0,0,347.21,118.45Z" transform="translate(-33.9 -33.55)"/><path class="cls-2" d="M305.2,111.33a12.75,12.75,0,0,1-4.89,10.11,18.07,18.07,0,0,1-12,4.12h-21.1c-2.82,0-4.24-1.18-4.24-3.55V79.34c0-2.37,1.42-3.55,4.24-3.55s4.21,1.18,4.21,3.55V97.12h16.89a18,18,0,0,1,12,4.15,12.78,12.78,0,0,1,4.89,10.06Zm-8.46,0a6.36,6.36,0,0,0-2.42-5.06,9.06,9.06,0,0,0-6-2H271.4v14.22h16.89a9,9,0,0,0,6-2.08A6.32,6.32,0,0,0,296.74,111.33Z" transform="translate(-33.9 -33.55)"/><path class="cls-2" d="M216,122V79.34c0-2.37,1.4-3.55,4.22-3.55h21.12a17.93,17.93,0,0,1,12,4.16,12.69,12.69,0,0,1,4.94,10v32c0,2.37-1.4,3.55-4.22,3.55s-4.23-1.18-4.23-3.55V90A6.35,6.35,0,0,0,247.38,85a9,9,0,0,0-6-2H224.46V122c0,2.37-1.39,3.55-4.21,3.55S216,124.38,216,122Z" transform="translate(-33.9 -33.55)"/><path class="cls-2" d="M186.21,107.78l-16.88-18.2V122c0,2.37-1.4,3.55-4.22,3.55s-4.24-1.18-4.24-3.55V79.34c0-2.37,1.42-3.55,4.24-3.55a6,6,0,0,1,4.22,2.26l16.88,18.2,16.89-18.2a5.94,5.94,0,0,1,4.24-2.26c2.82,0,4.22,1.18,4.22,3.55V122c0,2.37-1.4,3.55-4.22,3.55s-4.24-1.18-4.24-3.55V89.58Z" transform="translate(-33.9 -33.55)"/><path class="cls-2" d="M114.72,107.78V93.57c0-4.93,2.06-9.11,6.18-12.58a24.25,24.25,0,0,1,29.95,0A15.88,15.88,0,0,1,157,93.57v14.21c0,4.93-2.06,9.11-6.18,12.58a24.08,24.08,0,0,1-29.89,0c-4.12-3.47-6.18-7.65-6.18-12.58Zm33.8,0V93.55A9.57,9.57,0,0,0,144.8,86a14.41,14.41,0,0,0-17.91,0,9.54,9.54,0,0,0-3.72,7.54v14.23a9.57,9.57,0,0,0,3.67,7.58,14.52,14.52,0,0,0,18,0A9.56,9.56,0,0,0,148.52,107.78Z" transform="translate(-33.9 -33.55)"/><path class="cls-2" d="M83.51,88.4,72.57,98.52V122c0,2.37-1.4,3.55-4.22,3.55s-4.24-1.18-4.24-3.55V58c0-2.37,1.42-3.55,4.24-3.55s4.22,1.18,4.22,3.55v29.9l34.82-32.27a4.51,4.51,0,0,1,3.19-1.18c2.82,0,4.24,1.18,4.24,3.55a3.27,3.27,0,0,1-1.16,2.43L89.52,82.8l24.71,37.43a3.11,3.11,0,0,1,.59,1.78,3.23,3.23,0,0,1-1.31,2.45,4.47,4.47,0,0,1-2.93,1.1,4.16,4.16,0,0,1-3.78-1.89Z" transform="translate(-33.9 -33.55)"/></svg>